# xmcd
#
# Track frame offsets: 
#        150
#        17823
#        35353
#        51910
#        69533
#        87913
#        102715
#        120800
#        137970
#        153977
#        176026
#
# Disc length: 2598 seconds
#
# Revision: 2
# Processed by: cddbd v1.5.2PL0 Copyright (c) Steve Scherf et al.
# Submitted via: ExactAudioCopy v0.95b4
#
DISCID=920a240b
DTITLE=Last Autumn's Dream - Winter In Paradise
DYEAR=2006
DGENRE=Hard Rock
TTITLE0=Love To Go
TTITLE1=Don't Let Our Love Go Down
TTITLE2=The Way You Smile
TTITLE3=It's Alright
TTITLE4=My Heart Keeps Stalling
TTITLE5=Echoes From The Past
TTITLE6=Winter In Paradise
TTITLE7=I Don't Want To Hurt You
TTITLE8=All I Want Is Rock N' Roll
TTITLE9=If You're The One
TTITLE10='Till The End Of Time (Bonus Track)
EXTD=YEAR: 2005
EXTT0=
EXTT1=
EXTT2=
EXTT3=
EXTT4=
EXTT5=
EXTT6=
EXTT7=
EXTT8=
EXTT9=
EXTT10=
PLAYORDER=
